<?xml version="1.0" standalone="no"?>
<!DOCTYPE svg PUBLIC "-//W3C//DTD SVG 20010904//EN"
 "http://www.w3.org/TR/2001/REC-SVG-20010904/DTD/svg10.dtd">
<svg version="1.0" xmlns="http://www.w3.org/2000/svg"
 width="72.000000pt" height="72.000000pt" viewBox="0 0 72.000000 72.000000"
 preserveAspectRatio="xMidYMid meet">
<metadata>
Created by potrace 1.14, written by Peter Selinger 2001-2017
</metadata>
<g transform="translate(0.000000,72.000000) scale(0.100000,-0.100000)"
fill="#000000" stroke="none">
<path d="M100 656 c0 -7 14 -23 30 -36 l31 -23 -36 -37 c-30 -30 -35 -43 -35
-80 0 -29 7 -54 20 -70 11 -14 20 -33 20 -42 0 -10 8 -18 18 -18 16 -1 15 -2
-2 -15 -17 -13 -17 -17 -5 -31 11 -13 11 -18 1 -21 -24 -9 -11 -41 39 -92 57
-58 91 -71 38 -13 -19 20 -40 49 -46 63 -14 33 -6 91 13 102 17 10 18 27 2 27
-22 0 -78 74 -78 103 0 32 47 97 70 97 19 -1 50 -24 50 -38 0 -5 -7 -13 -16
-16 -11 -4 -14 -17 -12 -43 3 -37 4 -38 46 -41 33 -2 42 0 42 12 0 9 9 16 20
16 28 0 16 22 -31 56 -21 16 -42 39 -45 52 -3 12 -11 22 -18 22 -6 0 -33 18
-60 40 -54 45 -56 46 -56 26z m161 -156 c37 -21 14 -69 -26 -54 -21 8 -19 64
2 64 3 0 13 -5 24 -10z"/>
<path d="M280 593 c0 -11 52 -34 59 -27 8 7 -29 34 -46 34 -7 0 -13 -3 -13 -7z"/>
<path d="M397 583 c-4 -3 -7 -11 -7 -17 0 -6 5 -5 12 2 6 6 9 14 7 17 -3 3 -9
2 -12 -2z"/>
<path d="M500 570 c0 -5 7 -7 15 -4 8 4 15 8 15 10 0 2 -7 4 -15 4 -8 0 -15
-4 -15 -10z"/>
<path d="M340 541 c0 -12 29 -35 36 -28 11 10 -5 37 -21 37 -8 0 -15 -4 -15
-9z"/>
<path d="M451 515 c-13 -14 -27 -25 -32 -25 -5 0 -9 -4 -9 -10 0 -5 7 -10 15
-10 8 0 15 6 15 13 0 8 11 20 25 27 14 7 25 17 25 22 0 15 -14 8 -39 -17z"/>
<path d="M350 430 c0 -11 7 -20 15 -20 8 0 15 9 15 20 0 11 -7 20 -15 20 -8 0
-15 -9 -15 -20z"/>
<path d="M314 369 c-3 -6 -1 -16 5 -22 8 -8 11 -5 11 11 0 24 -5 28 -16 11z"/>
<path d="M352 314 c3 -17 21 -21 26 -6 1 5 -4 12 -13 16 -11 4 -15 1 -13 -10z"/>
</g>
</svg>
